<svg id="visual" viewBox="0 0 500 1920" xmlns="http://www.w3.org/2000/svg" xmlns:xlink="http://www.w3.org/1999/xlink" version="1.1"><path d="M414 0L402 20C390 40 366 80 366 120C366 160 390 200 404.2 240C418.3 280 422.7 320 421.8 360C421 400 415 440 402.3 480C389.7 520 370.3 560 371.7 600C373 640 395 680 408.7 720C422.3 760 427.7 800 413.7 840C399.7 880 366.3 920 351.3 960C336.3 1000 339.7 1040 351.2 1080C362.7 1120 382.3 1160 386.8 1200C391.3 1240 380.7 1280 373.5 1320C366.3 1360 362.7 1400 358.8 1440C355 1480 351 1520 364.8 1560C378.7 1600 410.3 1640 407.8 1680C405.3 1720 368.7 1760 369 1800C369.3 1840 406.7 1880 425.3 1900L444 1920L0 1920L0 1900C0 1880 0 1840 0 1800C0 1760 0 1720 0 1680C0 1640 0 1600 0 1560C0 1520 0 1480 0 1440C0 1400 0 1360 0 1320C0 1280 0 1240 0 1200C0 1160 0 1120 0 1080C0 1040 0 1000 0 960C0 920 0 880 0 840C0 800 0 760 0 720C0 680 0 640 0 600C0 560 0 520 0 480C0 440 0 400 0 360C0 320 0 280 0 240C0 200 0 160 0 120C0 80 0 40 0 20L0 0Z" fill="#38b2ac"></path><path d="M288 0L301.8 20C315.7 40 343.3 80 352.5 120C361.7 160 352.3 200 340.8 240C329.3 280 315.7 320 319.8 360C324 400 346 440 359.5 480C373 520 378 560 365.7 600C353.3 640 323.7 680 318.8 720C314 760 334 800 340.8 840C347.7 880 341.3 920 333.5 960C325.7 1000 316.3 1040 324.7 1080C333 1120 359 1160 361.5 1200C364 1240 343 1280 339.2 1320C335.3 1360 348.7 1400 351.8 1440C355 1480 348 1520 352 1560C356 1600 371 1640 364.7 1680C358.3 1720 330.7 1760 327.8 1800C325 1840 347 1880 358 1900L369 1920L0 1920L0 1900C0 1880 0 1840 0 1800C0 1760 0 1720 0 1680C0 1640 0 1600 0 1560C0 1520 0 1480 0 1440C0 1400 0 1360 0 1320C0 1280 0 1240 0 1200C0 1160 0 1120 0 1080C0 1040 0 1000 0 960C0 920 0 880 0 840C0 800 0 760 0 720C0 680 0 640 0 600C0 560 0 520 0 480C0 440 0 400 0 360C0 320 0 280 0 240C0 200 0 160 0 120C0 80 0 40 0 20L0 0Z" fill="#329d9b"></path><path d="M260 0L255.3 20C250.7 40 241.3 80 234.8 120C228.3 160 224.7 200 227 240C229.3 280 237.7 320 237.2 360C236.7 400 227.3 440 235.8 480C244.3 520 270.7 560 277.7 600C284.7 640 272.3 680 260.2 720C248 760 236 800 230.7 840C225.3 880 226.7 920 225.3 960C224 1000 220 1040 231.2 1080C242.3 1120 268.7 1160 270.2 1200C271.7 1240 248.3 1280 234.5 1320C220.7 1360 216.3 1400 216.8 1440C217.3 1480 222.7 1520 222.7 1560C222.7 1600 217.3 1640 221.5 1680C225.7 1720 239.3 1760 248.3 1800C257.3 1840 261.7 1880 263.8 1900L266 1920L0 1920L0 1900C0 1880 0 1840 0 1800C0 1760 0 1720 0 1680C0 1640 0 1600 0 1560C0 1520 0 1480 0 1440C0 1400 0 1360 0 1320C0 1280 0 1240 0 1200C0 1160 0 1120 0 1080C0 1040 0 1000 0 960C0 920 0 880 0 840C0 800 0 760 0 720C0 680 0 640 0 600C0 560 0 520 0 480C0 440 0 400 0 360C0 320 0 280 0 240C0 200 0 160 0 120C0 80 0 40 0 20L0 0Z" fill="#2e8889"></path><path d="M237 0L227.3 20C217.7 40 198.3 80 191.2 120C184 160 189 200 184.2 240C179.3 280 164.7 320 170.5 360C176.3 400 202.7 440 218.8 480C235 520 241 560 243.5 600C246 640 245 680 244.8 720C244.7 760 245.3 800 236 840C226.7 880 207.3 920 207.3 960C207.3 1000 226.7 1040 233.7 1080C240.7 1120 235.3 1160 224.2 1200C213 1240 196 1280 198.2 1320C200.3 1360 221.7 1400 222.8 1440C224 1480 205 1520 193.7 1560C182.3 1600 178.7 1640 174.3 1680C170 1720 165 1760 161 1800C157 1840 154 1880 152.5 1900L151 1920L0 1920L0 1900C0 1880 0 1840 0 1800C0 1760 0 1720 0 1680C0 1640 0 1600 0 1560C0 1520 0 1480 0 1440C0 1400 0 1360 0 1320C0 1280 0 1240 0 1200C0 1160 0 1120 0 1080C0 1040 0 1000 0 960C0 920 0 880 0 840C0 800 0 760 0 720C0 680 0 640 0 600C0 560 0 520 0 480C0 440 0 400 0 360C0 320 0 280 0 240C0 200 0 160 0 120C0 80 0 40 0 20L0 0Z" fill="#2a7477"></path><path d="M141 0L140.8 20C140.7 40 140.3 80 133.2 120C126 160 112 200 109.7 240C107.3 280 116.7 320 125 360C133.3 400 140.7 440 145 480C149.3 520 150.7 560 154.5 600C158.3 640 164.7 680 169.8 720C175 760 179 800 172 840C165 880 147 920 146.7 960C146.3 1000 163.7 1040 167.8 1080C172 1120 163 1160 154.7 1200C146.3 1240 138.7 1280 142.7 1320C146.7 1360 162.3 1400 162.3 1440C162.3 1480 146.7 1520 142 1560C137.3 1600 143.7 1640 137.2 1680C130.7 1720 111.3 1760 103.7 1800C96 1840 100 1880 102 1900L104 1920L0 1920L0 1900C0 1880 0 1840 0 1800C0 1760 0 1720 0 1680C0 1640 0 1600 0 1560C0 1520 0 1480 0 1440C0 1400 0 1360 0 1320C0 1280 0 1240 0 1200C0 1160 0 1120 0 1080C0 1040 0 1000 0 960C0 920 0 880 0 840C0 800 0 760 0 720C0 680 0 640 0 600C0 560 0 520 0 480C0 440 0 400 0 360C0 320 0 280 0 240C0 200 0 160 0 120C0 80 0 40 0 20L0 0Z" fill="#276164"></path><path d="M107 0L94.2 20C81.3 40 55.7 80 43.3 120C31 160 32 200 42.7 240C53.3 280 73.7 320 82 360C90.3 400 86.7 440 84 480C81.3 520 79.7 560 79.8 600C80 640 82 680 83.5 720C85 760 86 800 82.5 840C79 880 71 920 71.7 960C72.3 1000 81.7 1040 88.5 1080C95.3 1120 99.7 1160 100.8 1200C102 1240 100 1280 95.2 1320C90.3 1360 82.7 1400 73 1440C63.3 1480 51.7 1520 48.3 1560C45 1600 50 1640 60.2 1680C70.3 1720 85.7 1760 91.7 1800C97.7 1840 94.3 1880 92.7 1900L91 1920L0 1920L0 1900C0 1880 0 1840 0 1800C0 1760 0 1720 0 1680C0 1640 0 1600 0 1560C0 1520 0 1480 0 1440C0 1400 0 1360 0 1320C0 1280 0 1240 0 1200C0 1160 0 1120 0 1080C0 1040 0 1000 0 960C0 920 0 880 0 840C0 800 0 760 0 720C0 680 0 640 0 600C0 560 0 520 0 480C0 440 0 400 0 360C0 320 0 280 0 240C0 200 0 160 0 120C0 80 0 40 0 20L0 0Z" fill="#234e52"></path></svg>